<svg width="80" height="99" viewBox="0 0 80 99" fill="none" xmlns="http://www.w3.org/2000/svg">
<mask id="mask0_172_451" style="mask-type:luminance" maskUnits="userSpaceOnUse" x="38" y="39" width="42" height="60">
<path d="M38.0137 39.9199H79.342V98.2922H38.0137V39.9199Z" fill="white"/>
</mask>
<g mask="url(#mask0_172_451)">
<path d="M57.0321 98.2556C53.3875 98.2556 50.1661 97.3359 47.3678 95.4964C44.5744 93.6497 42.4023 91.0813 40.8589 87.7914C39.313 84.5064 38.54 80.7199 38.54 76.4369C38.54 72.149 39.313 68.3625 40.8589 65.0726C42.4023 61.7851 44.5744 59.2192 47.3678 57.3798C50.1661 55.533 53.3875 54.6084 57.0321 54.6084C59.5246 54.6084 61.7089 55.0463 63.5777 55.9195C65.4465 56.7903 67.2296 58.4218 68.9272 60.814V40.4189H79.0391V97.4312H68.9272V92.1282C67.2296 94.4691 65.4465 96.0737 63.5777 96.9469C61.7089 97.8202 59.5246 98.2556 57.0321 98.2556ZM59.3509 89.5844C62.592 89.5844 65.2117 88.3662 67.2076 85.9226C69.2036 83.4839 70.2016 80.3212 70.2016 76.4369C70.2016 72.5477 69.2036 69.385 67.2076 66.9414C65.2117 64.5002 62.592 63.2796 59.3509 63.2796C56.1564 63.2796 53.5856 64.5124 51.6337 66.9805C49.6891 69.4461 48.718 72.599 48.718 76.4369C48.718 80.2209 49.6891 83.3592 51.6337 85.8492C53.5856 88.3393 56.1564 89.5844 59.3509 89.5844Z" fill="white"/>
</g>
<path d="M68.6973 5.16603C68.6973 2.31291 71.0102 0 73.8633 0C76.7164 0 79.0293 2.31291 79.0293 5.16604V37.1015H68.6973V5.16603Z" fill="white"/>
<path d="M0.129883 5C0.129883 2.23858 2.36846 0 5.12988 0H74.0293C76.7908 0 79.0294 2.23858 79.0294 5V10.3321H0.129883V5Z" fill="white"/>
<path d="M15.1582 21.8273C15.1582 19.11 17.361 16.9072 20.0782 16.9072H58.6111C61.3283 16.9072 63.5311 19.11 63.5311 21.8273C63.5311 24.8162 61.108 27.2393 58.1191 27.2393H20.5702C17.5813 27.2393 15.1582 24.8162 15.1582 21.8273Z" fill="white"/>
<path d="M15.1582 37.795C15.1582 35.0778 17.361 32.875 20.0782 32.875H54.8539C57.5712 32.875 59.774 35.0778 59.774 37.795C59.774 40.784 57.3509 43.2071 54.3619 43.2071H20.5702C17.5813 43.2071 15.1582 40.784 15.1582 37.795Z" fill="white"/>
<path d="M15.1582 53.2931C15.1582 50.5758 17.361 48.373 20.0782 48.373H34.1898C36.907 48.373 39.1098 50.5758 39.1098 53.2931C39.1098 56.2821 36.6868 58.7051 33.6978 58.7051H20.5702C17.5813 58.7051 15.1582 56.2821 15.1582 53.2931Z" fill="white"/>
<path d="M0.129883 5.16604C0.129883 2.31292 2.4428 0 5.29592 0V0C8.14904 0 10.462 2.31291 10.462 5.16604V97.6851H5.12988C2.36846 97.6851 0.129883 95.4465 0.129883 92.6851V5.16604Z" fill="white"/>
<path d="M0.129883 92.5186C0.129883 89.6655 2.4428 87.3525 5.29592 87.3525H37.2314V97.6846H5.29592C2.44279 97.6846 0.129883 95.3717 0.129883 92.5186Z" fill="white"/>
</svg>
